<?xml version="1.0" standalone="no"?>
<!DOCTYPE svg PUBLIC "-//W3C//DTD SVG 20010904//EN"
 "http://www.w3.org/TR/2001/REC-SVG-20010904/DTD/svg10.dtd">
<svg version="1.0" xmlns="http://www.w3.org/2000/svg"
 width="1024.000000pt" height="1024.000000pt" viewBox="0 0 1024.000000 1024.000000"
 preserveAspectRatio="xMidYMid meet">
<metadata>
Created by potrace 1.14, written by Peter Selinger 2001-2017
</metadata>
<g transform="translate(0.000000,1024.000000) scale(0.100000,-0.100000)"
fill="#000000" stroke="none">
<path d="M5018 9408 c-162 -293 -372 -677 -387 -706 -7 -15 -43 -79 -78 -142
-36 -63 -88 -158 -115 -210 -28 -52 -77 -141 -109 -198 -33 -57 -59 -105 -59
-107 0 -2 -17 -34 -39 -72 -21 -37 -52 -93 -68 -123 -47 -87 -255 -465 -385
-699 -65 -118 -118 -218 -118 -223 0 -4 -4 -8 -10 -8 -5 0 -10 -5 -10 -11 0
-17 -372 -689 -381 -689 -5 0 -9 -8 -9 -17 0 -10 -23 -58 -50 -107 -28 -49
-50 -91 -50 -93 0 -3 -9 -18 -21 -34 -11 -16 -42 -71 -69 -123 -66 -127 -331
-610 -339 -616 -3 -3 -25 -43 -49 -90 -23 -47 -53 -103 -65 -125 -186 -325
-317 -600 -363 -765 -90 -323 -121 -523 -122 -785 0 -222 27 -432 83 -651 84
-327 210 -603 403 -884 77 -111 155 -211 160 -205 3 2 -12 44 -31 93 -81 201
-117 408 -117 663 0 337 59 659 195 1064 91 271 240 634 261 635 6 0 24 -35
39 -77 110 -312 260 -548 382 -603 60 -27 148 -43 196 -35 182 29 306 129 351
284 31 105 21 163 -88 537 -100 346 -118 416 -170 664 -64 307 -70 609 -15
825 24 95 81 219 137 301 48 72 156 176 237 231 69 46 178 103 198 103 17 0
27 -42 27 -111 0 -125 55 -407 110 -560 68 -190 162 -357 299 -532 87 -110
349 -357 556 -522 201 -160 413 -360 542 -510 424 -491 610 -1097 623 -2023 0
-19 4 -32 9 -30 29 11 191 223 241 315 11 21 24 45 29 53 40 66 98 239 132
393 28 124 36 490 13 647 -23 168 -87 462 -113 525 -11 28 -81 249 -81 258 0
23 52 -1 109 -49 374 -318 602 -654 718 -1059 37 -129 54 -256 60 -446 4 -139
1 -189 -17 -309 -12 -80 -27 -156 -32 -170 -5 -14 -16 -50 -24 -80 -15 -58
-43 -136 -75 -207 -11 -24 -19 -47 -19 -51 0 -5 -11 -25 -24 -45 -13 -19 -27
-44 -31 -56 -11 -35 -75 -141 -149 -245 -93 -130 -210 -256 -391 -420 -16 -15
-23 -24 -15 -20 22 11 142 96 164 116 11 10 23 18 27 18 4 0 14 6 21 13 7 7
45 40 83 72 101 85 275 264 366 377 412 513 626 1125 614 1758 -6 293 -52 550
-148 820 -67 191 -118 295 -309 640 -14 25 -43 79 -65 120 -48 89 -86 158
-143 260 -24 41 -50 89 -58 105 -9 17 -57 106 -109 198 -51 93 -93 170 -93
172 0 2 -16 32 -36 67 -49 86 -53 93 -371 673 -154 281 -292 530 -305 555 -14
25 -91 164 -171 310 -275 503 -310 566 -422 770 -62 113 -161 293 -220 400
-59 107 -120 218 -135 245 -15 28 -48 88 -74 134 -25 46 -46 86 -46 88 0 3
-15 31 -33 62 -19 31 -83 145 -143 254 -59 108 -111 197 -114 197 -4 0 -50
-78 -102 -172z"/>
<path d="M5107 3227 c-3 -22 -1 -49 4 -58 11 -22 12 -306 0 -313 -4 -3 -12
-42 -15 -87 -8 -85 -31 -190 -45 -199 -4 -3 -16 -29 -25 -57 -10 -31 -24 -53
-32 -53 -8 0 -14 -8 -14 -17 0 -27 -33 -76 -96 -141 -31 -32 -59 -63 -62 -69
-18 -25 -124 -102 -150 -108 -18 -3 -32 -14 -35 -26 -3 -11 -19 -24 -35 -30
-17 -6 -33 -16 -36 -24 -2 -7 -18 -16 -35 -20 -17 -4 -31 -10 -31 -14 0 -3
-28 -27 -62 -51 -65 -47 -142 -120 -215 -204 -52 -61 -68 -121 -68 -266 0 -78
6 -130 24 -200 23 -92 28 -107 64 -178 9 -19 17 -40 17 -47 0 -8 6 -20 13 -27
6 -7 21 -30 32 -51 21 -39 130 -169 149 -176 5 -2 19 -12 30 -23 11 -10 26
-18 33 -18 7 0 21 -9 30 -20 10 -11 21 -20 26 -20 5 0 23 -6 40 -14 123 -54
244 -69 522 -64 151 3 200 8 240 22 75 27 157 67 179 88 11 10 26 18 33 18 7
0 13 4 13 9 0 5 16 16 36 26 19 9 40 28 47 43 7 14 24 39 38 54 30 34 89 140
89 162 0 9 4 16 9 16 5 0 17 22 26 49 9 28 19 51 23 53 11 4 67 195 93 318 19
87 23 136 23 280 0 158 -3 186 -28 290 -16 63 -31 129 -33 145 -3 17 -11 37
-18 45 -7 8 -16 30 -20 48 -7 33 -58 138 -76 157 -5 5 -9 17 -9 26 0 10 -11
30 -24 46 -13 15 -31 44 -41 63 -17 33 -37 61 -85 118 -11 13 -20 30 -20 37 0
14 -28 44 -227 248 -68 68 -123 129 -123 135 0 6 -16 16 -35 22 -19 6 -35 15
-35 20 0 15 -46 59 -72 69 -24 9 -26 8 -31 -32z"/>
</g>
</svg>
